<svg xmlns="http://www.w3.org/2000/svg" xmlns:xlink="http://www.w3.org/1999/xlink" width="500" zoomAndPan="magnify" viewBox="0 0 375 374.999991" height="500" preserveAspectRatio="xMidYMid meet" version="1.0"><defs><clipPath id="ef19bb6f5c"><path d="M 0.742188 0.585938 L 67.175781 0.585938 L 67.175781 292.414062 L 0.742188 292.414062 Z M 0.742188 0.585938 " clip-rule="nonzero"/></clipPath><clipPath id="71056e566f"><path d="M 0.742188 0.585938 L 67.175781 0.585938 L 67.175781 292.414062 L 0.742188 292.414062 Z M 0.742188 0.585938 " clip-rule="nonzero"/></clipPath><clipPath id="5c4cc300fc"><rect x="0" width="68" y="0" height="293"/></clipPath><clipPath id="8a2a1133b3"><path d="M 63.960938 234.660156 L 167.933594 234.660156 L 167.933594 292.414062 L 63.960938 292.414062 Z M 63.960938 234.660156 " clip-rule="nonzero"/></clipPath><clipPath id="a39403f2ec"><path d="M 0.960938 0.660156 L 104.933594 0.660156 L 104.933594 58.414062 L 0.960938 58.414062 Z M 0.960938 0.660156 " clip-rule="nonzero"/></clipPath><clipPath id="93f4c7d64f"><rect x="0" width="105" y="0" height="59"/></clipPath><clipPath id="fe8153c5db"><path d="M 87.019531 48.152344 L 137.097656 48.152344 L 137.097656 216.371094 L 87.019531 216.371094 Z M 87.019531 48.152344 " clip-rule="nonzero"/></clipPath><clipPath id="628a28ebc3"><path d="M 0.0195312 0.152344 L 50.097656 0.152344 L 50.097656 168.371094 L 0.0195312 168.371094 Z M 0.0195312 0.152344 " clip-rule="nonzero"/></clipPath><clipPath id="69d03fc212"><rect x="0" width="51" y="0" height="169"/></clipPath><clipPath id="adaac54569"><path d="M 133.074219 48.152344 L 214.257812 48.152344 L 214.257812 92.496094 L 133.074219 92.496094 Z M 133.074219 48.152344 " clip-rule="nonzero"/></clipPath><clipPath id="2221a8976f"><path d="M 0.0742188 0.152344 L 81.257812 0.152344 L 81.257812 44.496094 L 0.0742188 44.496094 Z M 0.0742188 0.152344 " clip-rule="nonzero"/></clipPath><clipPath id="d9d2312458"><rect x="0" width="82" y="0" height="45"/></clipPath><clipPath id="3a1267462c"><path d="M 127.339844 135.5625 L 208.523438 135.5625 L 208.523438 179.90625 L 127.339844 179.90625 Z M 127.339844 135.5625 " clip-rule="nonzero"/></clipPath><clipPath id="1a11e949c2"><path d="M 0.339844 0.5625 L 81.523438 0.5625 L 81.523438 44.90625 L 0.339844 44.90625 Z M 0.339844 0.5625 " clip-rule="nonzero"/></clipPath><clipPath id="02b0d5cac9"><rect x="0" width="82" y="0" height="45"/></clipPath><clipPath id="e3b197b005"><rect x="0" width="215" y="0" height="293"/></clipPath></defs><g transform="matrix(1, 0, 0, 1, 80, 41)"><g clip-path="url(#e3b197b005)"><g clip-path="url(#ef19bb6f5c)"><g><g clip-path="url(#5c4cc300fc)"><g clip-path="url(#71056e566f)"><path fill="#ffffff" d="M 0.742188 0.585938 L 67.175781 0.585938 L 67.175781 292.535156 L 0.742188 292.535156 Z M 0.742188 0.585938 " fill-opacity="1" fill-rule="nonzero"/></g></g></g></g><g clip-path="url(#8a2a1133b3)"><g transform="matrix(1, 0, 0, 1, 63, 234)"><g clip-path="url(#93f4c7d64f)"><g clip-path="url(#a39403f2ec)"><path fill="#ffffff" d="M 0.960938 0.660156 L 104.957031 0.660156 L 104.957031 58.414062 L 0.960938 58.414062 Z M 0.960938 0.660156 " fill-opacity="1" fill-rule="nonzero"/></g></g></g></g><g clip-path="url(#fe8153c5db)"><g transform="matrix(1, 0, 0, 1, 87, 48)"><g clip-path="url(#69d03fc212)"><g clip-path="url(#628a28ebc3)"><path fill="#ffffff" d="M 0.0195312 0.152344 L 50.097656 0.152344 L 50.097656 168.386719 L 0.0195312 168.386719 Z M 0.0195312 0.152344 " fill-opacity="1" fill-rule="nonzero"/></g></g></g></g><g clip-path="url(#adaac54569)"><g transform="matrix(1, 0, 0, 1, 133, 48)"><g clip-path="url(#d9d2312458)"><g clip-path="url(#2221a8976f)"><path fill="#ffffff" d="M 0.0742188 0.152344 L 81.316406 0.152344 L 81.316406 44.496094 L 0.0742188 44.496094 Z M 0.0742188 0.152344 " fill-opacity="1" fill-rule="nonzero"/></g></g></g></g><g clip-path="url(#3a1267462c)"><g transform="matrix(1, 0, 0, 1, 127, 135)"><g clip-path="url(#02b0d5cac9)"><g clip-path="url(#1a11e949c2)"><path fill="#ffffff" d="M 0.339844 0.5625 L 81.582031 0.5625 L 81.582031 44.90625 L 0.339844 44.90625 Z M 0.339844 0.5625 " fill-opacity="1" fill-rule="nonzero"/></g></g></g></g></g></g></svg>